<?xml version="1.0" encoding="utf-8"?>
<!-- Generator: Adobe Illustrator 25.3.1, SVG Export Plug-In . SVG Version: 6.00 Build 0)  -->
<svg version="1.1" id="Layer_1" xmlns="http://www.w3.org/2000/svg" xmlns:xlink="http://www.w3.org/1999/xlink" x="0px" y="0px"
	 viewBox="0 0 126.4 55.4" style="enable-background:new 0 0 126.4 55.4;" xml:space="preserve">
<g id="Layer_5">
	<path d="M0,38.2l4.7-4.6c2.4,4.1,6.7,6.6,11.4,6.6c4.6,0,7-2.3,7-5.2c0-2.4-1.6-4.2-6-4.8l-3.2-0.5c-6.6-1-11-4.8-11-10.5
		C2.8,12.8,8,7.8,16.3,7.8c5.1-0.1,10,2.1,13.2,6L25,18.6c-2.1-2.7-5.4-4.3-8.8-4.3c-3.7,0-5.9,2-5.9,4.2s1.6,3.8,4.9,4.3l3.2,0.5
		c7.7,1.1,12.2,5,12.2,11.3c0,7.2-5.9,12.2-14.5,12.2S2.6,42.3,0,38.2z"/>
	<path d="M34.3,6.9h7v14.7c2-3,5.4-4.8,9-4.6c7.4,0,10.8,5.1,10.8,12.3V46h-7V30c0-4.5-2.1-6.9-6.3-6.9c-3,0-5.7,2-6.5,5V46h-7
		L34.3,6.9z"/>
	<path d="M84.9,38.3L84.9,38.3c-1.5,1.5-3.5,2.3-5.6,2.3c-4.6,0-7.9-3.4-7.9-8.7s3.4-8.6,7.9-8.6c2.8-0.1,5.4,1.4,6.8,3.9l4.8-5.2
		c-2.5-3-6.4-4.9-11.5-4.9c-9.9,0-15,7.1-15,14.8s5.2,14.9,15,14.9s15-7.1,15-14.9c0-1.1-0.1-2.3-0.4-3.4L84.9,38.3z"/>
	<rect x="83.3" y="28.8" transform="matrix(0.6744 -0.7383 0.7383 0.6744 7.1652 80.6745)" width="23.5" height="6.8"/>
	<path d="M111.4,17c-9.8,0-15,7.1-15,14.8c0,1.2,0.1,2.4,0.4,3.5l9-9.9l0,0c1.5-1.5,3.5-2.3,5.6-2.3c4.6,0,7.9,3.4,7.9,8.6
		s-3.4,8.7-7.9,8.7c-2.8,0.1-5.4-1.4-6.7-3.8l-4.7,5.2c2.5,2.9,6.4,4.9,11.5,4.9c9.8,0,15-7.1,15-14.9S121.2,17,111.4,17z"/>
	<g id="P_High">
		<polygon points="99.8,32 96.4,32 96.4,35.8 		"/>
		<polygon points="96.4,45.8 96.4,55.4 103.4,55.4 103.4,38 		"/>
	</g>
</g>
</svg>
